<svg xmlns="http://www.w3.org/2000/svg" viewBox="0 0 1024 1024" fill="none">
    <rect width="1024" height="1024" fill="#4A0445" />
    <path fill-rule="evenodd" clip-rule="evenodd" d="M483.292 816.856V531.039L540.727 519.552V816.856C531.276 817.757 521.697 818.219 512.009 818.219C502.322 818.219 492.743 817.757 483.292 816.856Z" fill="white" />
    <path
        fill-rule="evenodd"
        clip-rule="evenodd"
        d="M690.061 279.736V433.396C690.061 491.926 793.577 545.527 808.813 553.099C806.434 574.378 801.82 594.981 795.21 614.669C751.911 590.619 632.625 517.751 632.625 444.883V246.24C653.078 255.279 672.326 266.547 690.061 279.736Z"
        fill="white"
    />
    <path
        fill-rule="evenodd"
        clip-rule="evenodd"
        d="M333.918 279.736V433.396C333.918 491.926 230.402 545.527 215.167 553.099C217.545 574.378 222.16 594.981 228.769 614.669C272.069 590.619 391.354 517.751 391.354 444.883V246.24C370.901 255.279 351.653 266.547 333.918 279.736Z"
        fill="white"
    />
    <path
        fill-rule="evenodd"
        clip-rule="evenodd"
        d="M727.316 726.543C653.693 680.533 557.958 604.394 557.958 519.552V444.885L615.394 473.603V508.065C615.394 580.786 706.862 645.436 764.599 679C753.782 696.1 741.276 712.026 727.316 726.543Z"
        fill="white"
    />
    <path
        fill-rule="evenodd"
        clip-rule="evenodd"
        d="M296.574 726.543C370.197 680.533 465.932 604.394 465.932 519.552V444.885L408.496 473.603V508.065C408.496 580.786 317.028 645.436 259.292 679C270.108 696.1 282.614 712.026 296.574 726.543Z"
        fill="white"
    />
</svg>
