<svg xmlns="http://www.w3.org/2000/svg" width="1024" height="1024" viewBox="0 0 1024 1024" fill="none">
    <rect width="1024" height="1024" rx="512" fill="#0C6291" />
    <g clip-path="url(#clip0_2155_2040)">
        <path
            fill-rule="evenodd"
            clip-rule="evenodd"
            d="M394.091 248.48C426.734 234.959 461.72 228 497.053 228V429.789C497.053 466.938 466.938 497.053 429.789 497.053H228C228 461.72 234.959 426.734 248.48 394.091C262.002 361.448 281.82 331.788 306.804 306.804C331.788 281.82 361.448 262.002 394.091 248.48Z"
            fill="white"
        />
        <path
            fill-rule="evenodd"
            clip-rule="evenodd"
            d="M693.038 248.48C725.681 234.959 760.667 228 796 228V429.789C796 466.938 765.885 497.053 728.737 497.053H526.947C526.947 461.72 533.906 426.734 547.428 394.091C560.949 361.448 580.767 331.788 605.751 306.804C630.735 281.82 660.395 262.002 693.038 248.48Z"
            fill="white"
        />
        <path
            fill-rule="evenodd"
            clip-rule="evenodd"
            d="M629.909 775.52C597.266 789.041 562.28 796 526.947 796V594.211C526.947 557.062 557.062 526.947 594.211 526.947H796C796 562.28 789.041 597.266 775.52 629.909C761.998 662.552 742.18 692.212 717.196 717.196C692.212 742.18 662.552 761.998 629.909 775.52Z"
            fill="white"
        />
        <path
            fill-rule="evenodd"
            clip-rule="evenodd"
            d="M330.962 775.52C298.319 789.041 263.333 796 228 796V594.211C228 557.062 258.115 526.947 295.263 526.947H497.053C497.053 562.28 490.094 597.266 476.572 629.909C463.051 662.552 443.233 692.212 418.249 717.196C393.265 742.18 363.605 761.998 330.962 775.52Z"
            fill="white"
        />
    </g>
    <defs>
        <clipPath id="clip0_2155_2040">
            <rect width="568" height="568" fill="white" transform="translate(228 228)" />
        </clipPath>
    </defs>
</svg>
