<svg viewBox="0 0 105 27" fill="none" xmlns="http://www.w3.org/2000/svg">
    <g clip-path="url(#clip0_4004_12723)">
        <path
            fill-rule="evenodd"
            clip-rule="evenodd"
            d="M7.77332 0.958517C9.30107 0.325702 10.9385 0 12.5921 0V9.44409C12.5921 11.1827 11.1827 12.5921 9.44409 12.5921H0C0 10.9385 0.325702 9.30107 0.958517 7.77332C1.59133 6.24558 2.51886 4.85743 3.68814 3.68815C4.85743 2.51886 6.24557 1.59133 7.77332 0.958517Z"
            fill="#0C6291"
        />
        <path
            fill-rule="evenodd"
            clip-rule="evenodd"
            d="M21.7646 0.958517C23.2923 0.325702 24.9297 0 26.5834 0V9.44409C26.5834 11.1827 25.1739 12.5921 23.4353 12.5921H13.9912C13.9912 10.9385 14.3169 9.30107 14.9498 7.77332C15.5826 6.24558 16.5101 4.85743 17.6794 3.68815C18.8487 2.51886 20.2368 1.59133 21.7646 0.958517Z"
            fill="#0C6291"
        />
        <path
            fill-rule="evenodd"
            clip-rule="evenodd"
            d="M18.81 25.6248C17.2823 26.2577 15.6449 26.5834 13.9912 26.5834V17.1393C13.9912 15.4007 15.4007 13.9912 17.1393 13.9912H26.5834C26.5834 15.6449 26.2577 17.2823 25.6248 18.81C24.992 20.3378 24.0645 21.7259 22.8952 22.8952C21.7259 24.0645 20.3378 24.992 18.81 25.6248Z"
            fill="#0C6291"
        />
        <path
            fill-rule="evenodd"
            clip-rule="evenodd"
            d="M4.81879 25.6248C3.29105 26.2577 1.65362 26.5834 1.90735e-06 26.5834V17.1393C1.90735e-06 15.4007 1.40942 13.9912 3.14803 13.9912H12.5921C12.5921 15.6449 12.2664 17.2823 11.6336 18.81C11.0008 20.3378 10.0733 21.7259 8.90398 22.8952C7.73469 24.0645 6.34654 24.992 4.81879 25.6248Z"
            fill="#0C6291"
        />
    </g>
    <path
        fill-rule="evenodd"
        clip-rule="evenodd"
        d="M100.717 21.0293H104.111V13.5221C104.111 12.2279 103.844 11.1102 103.31 10.1689C102.785 9.21865 102.039 8.48558 101.07 7.96972C100.102 7.4448 98.9571 7.18234 97.6358 7.18234C96.7579 7.18234 95.8483 7.30452 94.9071 7.54888L93.4961 10.8749H94.3826C94.5449 10.8037 94.7107 10.7404 94.88 10.6848C95.4954 10.4857 96.1153 10.3861 96.7398 10.3861C97.3914 10.3861 97.9797 10.4947 98.5046 10.7119C99.0386 10.9292 99.4549 11.2369 99.7536 11.6351C100.061 12.0242 100.215 12.4903 100.215 13.0333V13.3863C99.6902 13.1419 99.12 12.9519 98.5046 12.8161C97.8983 12.6804 97.2919 12.6125 96.6855 12.6125C95.6538 12.6125 94.7306 12.8026 93.9161 13.1827C93.1106 13.5537 92.4771 14.0696 92.0155 14.7303C91.554 15.3909 91.3232 16.1557 91.3232 17.0245C91.3232 17.8481 91.5358 18.5857 91.9612 19.2373C92.3866 19.8799 92.9703 20.3867 93.7125 20.7578C94.4546 21.1198 95.3008 21.3008 96.2511 21.3008C97.129 21.3008 97.9345 21.1379 98.6675 20.8121C99.4006 20.4772 100.016 20.0111 100.514 19.4138L100.717 21.0293ZM98.5861 17.9612C98.1155 18.1875 97.6222 18.3006 97.1063 18.3006C96.681 18.3006 96.3009 18.2282 95.966 18.0834C95.6311 17.9295 95.3642 17.7214 95.165 17.4589C94.975 17.1874 94.88 16.8842 94.88 16.5494C94.88 16.0335 95.1153 15.6127 95.5859 15.2869C96.0565 14.9611 96.6629 14.7981 97.405 14.7981C97.9028 14.7981 98.3915 14.8751 98.8712 15.0289C99.3599 15.1737 99.8034 15.3819 100.202 15.6534V15.7484C100.183 16.219 100.025 16.6489 99.7264 17.0381C99.4368 17.4273 99.0567 17.735 98.5861 17.9612Z"
        fill="#101619"
    />
    <path
        d="M89.9297 20.8519C88.8889 21.2682 88.4346 21.2736 87.4571 21.2736C86.4435 21.2736 85.5475 21.0609 84.7692 20.6356C83.9999 20.2011 83.398 19.5993 82.9636 18.83C82.5292 18.0517 82.5156 17.7847 82.5156 16.1964V7.42669V3.70703H86.2082V7.42669H89.9686L88.4496 10.902H86.2082V15.4362C86.2082 16.1783 86.4118 16.7575 86.8191 17.1738C87.2263 17.5811 87.7332 17.7847 88.3395 17.7847C88.8916 17.7847 89.4048 17.8363 89.9297 17.4924V20.8519Z"
        fill="#101619"
    />
    <path
        fill-rule="evenodd"
        clip-rule="evenodd"
        d="M77.3139 21.0293H80.7078V13.5221C80.7078 12.2279 80.4408 11.1102 79.9069 10.1689C79.382 9.21865 78.6353 8.48558 77.6669 7.96972C76.6985 7.4448 75.5537 7.18234 74.2323 7.18234C73.3544 7.18234 72.4449 7.30452 71.5036 7.54888L70.0926 10.8749H70.9791C71.1414 10.8037 71.3072 10.7404 71.4765 10.6848C72.0919 10.4857 72.7118 10.3861 73.3363 10.3861C73.9879 10.3861 74.5762 10.4947 75.1011 10.7119C75.6351 10.9292 76.0514 11.2369 76.3501 11.6351C76.6578 12.0242 76.8117 12.4903 76.8117 13.0333V13.3863C76.2867 13.1419 75.7166 12.9519 75.1011 12.8161C74.4948 12.6804 73.8884 12.6125 73.282 12.6125C72.2503 12.6125 71.3271 12.8026 70.5126 13.1827C69.7071 13.5537 69.0736 14.0696 68.612 14.7303C68.1505 15.3909 67.9197 16.1557 67.9197 17.0245C67.9197 17.8481 68.1324 18.5857 68.5577 19.2373C68.9831 19.8799 69.5668 20.3867 70.309 20.7578C71.0511 21.1198 71.8973 21.3008 72.8476 21.3008C73.7255 21.3008 74.531 21.1379 75.264 20.8121C75.9971 20.4772 76.6125 20.0111 77.1103 19.4138L77.3139 21.0293ZM75.1826 17.9612C74.712 18.1875 74.2187 18.3006 73.7029 18.3006C73.2775 18.3006 72.8974 18.2282 72.5625 18.0834C72.2276 17.9295 71.9607 17.7214 71.7616 17.4589C71.5715 17.1874 71.4765 16.8842 71.4765 16.5494C71.4765 16.0335 71.7118 15.6127 72.1824 15.2869C72.653 14.9611 73.2594 14.7981 74.0015 14.7981C74.4993 14.7981 74.988 14.8751 75.4677 15.0289C75.9564 15.1737 76.3999 15.3819 76.7981 15.6534V15.7484C76.78 16.219 76.6216 16.6489 76.3229 17.0381C76.0333 17.4273 75.6532 17.735 75.1826 17.9612Z"
        fill="#101619"
    />
    <path
        d="M64.404 21.2609H60.5078V7.5517H63.9139L64.0374 10.034C64.4899 9.21052 65.1054 8.56787 65.8837 8.10633C66.662 7.6448 67.5064 7.41413 68.511 7.41413L66.8892 11.1065C66.8892 11.1065 66.8129 11.0303 66.1688 11.4187C65.6077 11.7536 65.1732 12.2242 64.8655 12.8306C64.5578 13.4279 64.404 14.1293 64.404 14.9348V21.2609Z"
        fill="#101619"
    />
    <path
        d="M58.6515 20.8519C57.6107 21.2682 57.1563 21.2736 56.1789 21.2736C55.1653 21.2736 54.2693 21.0609 53.4909 20.6356C52.7217 20.2011 52.1198 19.5993 51.6854 18.83C51.251 18.0517 51.2374 17.7847 51.2374 16.1964V7.42669V3.70703H54.93V7.42669H58.6904L57.1714 10.902H54.93V15.4362C54.93 16.1783 55.1336 16.7575 55.5409 17.1738C55.9481 17.5811 56.4549 17.7847 57.0613 17.7847C57.6134 17.7847 58.1265 17.8363 58.6515 17.4924V20.8519Z"
        fill="#101619"
    />
    <path
        d="M34.5584 18.5712L36.5404 15.3809C37.1649 15.8878 37.7667 16.3041 38.3459 16.6299C38.9342 16.9466 39.5134 17.1819 40.0836 17.3358C40.6538 17.4806 41.2375 17.553 41.8349 17.553C42.5408 17.553 43.1517 17.4534 43.6676 17.2543C44.1834 17.0552 44.5816 16.7702 44.8622 16.3991C45.1518 16.028 45.2966 15.5981 45.2966 15.1094C45.2966 14.5393 45.1156 14.0596 44.7536 13.6704C44.3916 13.2813 43.9164 12.9419 43.3282 12.6523C42.7489 12.3536 42.1199 12.0685 41.4412 11.797C40.7805 11.5255 40.1153 11.2314 39.4456 10.9146C38.7849 10.5888 38.174 10.2042 37.6129 9.76072C37.0608 9.31725 36.6128 8.77876 36.2689 8.14524C35.934 7.50268 35.7666 6.72435 35.7666 5.81027C35.7666 4.61564 36.0652 3.58391 36.6626 2.71508C37.2689 1.84626 38.0971 1.17654 39.1469 0.705921C40.1967 0.235307 41.3959 0 42.7444 0C43.6947 0 44.6812 0.126704 45.7039 0.380111C46.7356 0.633519 47.7628 1.01816 48.7855 1.53402L47.1429 4.9143C46.5003 4.52514 45.808 4.21743 45.0658 3.99117C44.3237 3.76491 43.6268 3.65178 42.9752 3.65178C42.3869 3.65178 41.8711 3.74229 41.4276 3.92329C40.9932 4.1043 40.6538 4.35771 40.4094 4.68352C40.1651 5.00027 40.0429 5.37586 40.0429 5.81027C40.0429 6.32614 40.2194 6.77413 40.5723 7.15424C40.9253 7.5253 41.3823 7.85564 41.9435 8.14524C42.5136 8.43485 43.1245 8.72446 43.7762 9.01407C44.4459 9.30368 45.1201 9.62044 45.7989 9.96435C46.4867 10.3083 47.1112 10.7155 47.6723 11.1861C48.2425 11.6477 48.6995 12.2043 49.0435 12.8559C49.3964 13.4985 49.5729 14.2723 49.5729 15.1773C49.5729 16.3719 49.2561 17.4218 48.6226 18.3268C47.9891 19.2228 47.1067 19.9242 45.9754 20.431C44.8441 20.9288 43.5273 21.1776 42.0249 21.1776C40.6493 21.1776 39.3324 20.9559 38.0744 20.5124C36.8164 20.069 35.6444 19.4219 34.5584 18.5712Z"
        fill="#101619"
    />
    <defs>
        <clipPath id="clip0_4004_12723">
            <rect width="26.5834" height="26.5834" fill="white" />
        </clipPath>
    </defs>
</svg>
