<svg viewBox="0 0 1005 237" fill="none" xmlns="http://www.w3.org/2000/svg">
    <path
        d="M959.272 146.583C950.072 146.583 941.976 144.62 934.984 140.695C927.992 136.647 922.533 131.004 918.608 123.767C914.683 116.53 912.72 108.188 912.72 98.743C912.72 88.9297 914.621 80.343 918.424 72.983C922.349 65.623 927.808 59.8577 934.8 55.687C941.915 51.5163 950.133 49.431 959.456 49.431C968.533 49.431 976.445 51.455 983.192 55.503C989.939 59.551 995.152 65.0097 998.832 71.879C1002.51 78.6257 1004.35 86.231 1004.35 94.695C1004.35 95.9217 1004.35 97.271 1004.35 98.743C1004.35 100.215 1004.23 101.748 1003.98 103.343H928.544V89.175H982.088C981.843 82.4283 979.573 77.1537 975.28 73.351C970.987 69.4257 965.651 67.463 959.272 67.463C954.733 67.463 950.563 68.5057 946.76 70.591C942.957 72.6763 939.952 75.8043 937.744 79.975C935.536 84.023 934.432 89.175 934.432 95.431V100.767C934.432 106.532 935.475 111.5 937.56 115.671C939.768 119.842 942.712 123.031 946.392 125.239C950.195 127.324 954.427 128.367 959.088 128.367C964.24 128.367 968.472 127.263 971.784 125.055C975.219 122.847 977.733 119.903 979.328 116.223H1001.78C1000.06 121.988 997.237 127.202 993.312 131.863C989.387 136.402 984.541 140.02 978.776 142.719C973.011 145.295 966.509 146.583 959.272 146.583Z"
        fill="#101619"
    />
    <path
        d="M851.72 144.375V51.639H871.408L873.432 68.935C875.64 64.887 878.4 61.4523 881.712 58.631C885.024 55.687 888.888 53.4177 893.304 51.823C897.843 50.2283 902.811 49.431 908.208 49.431V72.799H900.48C896.8 72.799 893.304 73.2897 889.992 74.271C886.68 75.1297 883.797 76.6017 881.344 78.687C879.013 80.6497 877.173 83.4097 875.824 86.967C874.475 90.4017 873.8 94.7563 873.8 100.031V144.375H851.72Z"
        fill="#101619"
    />
    <path
        d="M801.272 146.583C792.072 146.583 783.976 144.62 776.984 140.695C769.992 136.647 764.533 131.004 760.608 123.767C756.683 116.53 754.72 108.188 754.72 98.743C754.72 88.9297 756.621 80.343 760.424 72.983C764.349 65.623 769.808 59.8577 776.8 55.687C783.915 51.5163 792.133 49.431 801.456 49.431C810.533 49.431 818.445 51.455 825.192 55.503C831.939 59.551 837.152 65.0097 840.832 71.879C844.512 78.6257 846.352 86.231 846.352 94.695C846.352 95.9217 846.352 97.271 846.352 98.743C846.352 100.215 846.229 101.748 845.984 103.343H770.544V89.175H824.088C823.843 82.4283 821.573 77.1537 817.28 73.351C812.987 69.4257 807.651 67.463 801.272 67.463C796.733 67.463 792.563 68.5057 788.76 70.591C784.957 72.6763 781.952 75.8043 779.744 79.975C777.536 84.023 776.432 89.175 776.432 95.431V100.767C776.432 106.532 777.475 111.5 779.56 115.671C781.768 119.842 784.712 123.031 788.392 125.239C792.195 127.324 796.427 128.367 801.088 128.367C806.24 128.367 810.472 127.263 813.784 125.055C817.219 122.847 819.733 119.903 821.328 116.223H843.776C842.059 121.988 839.237 127.202 835.312 131.863C831.387 136.402 826.541 140.02 820.776 142.719C815.011 145.295 808.509 146.583 801.272 146.583Z"
        fill="#101619"
    />
    <path
        d="M661.72 144.375V11.895H683.8V65.991C686.867 60.9617 691.037 56.975 696.312 54.031C701.587 50.9643 707.536 49.431 714.16 49.431C721.765 49.431 728.205 51.0257 733.48 54.215C738.755 57.2817 742.741 61.8817 745.44 68.015C748.261 74.0257 749.672 81.5697 749.672 90.647V144.375H727.776V92.671C727.776 84.6977 726.059 78.6257 722.624 74.455C719.312 70.2843 714.221 68.199 707.352 68.199C702.936 68.199 698.949 69.303 695.392 71.511C691.835 73.5963 689.013 76.663 686.928 80.711C684.843 84.6363 683.8 89.4817 683.8 95.247V144.375H661.72Z"
        fill="#101619"
    />
    <path
        d="M559.72 184.855V51.639H579.408L581.8 65.071C583.763 62.3723 586.093 59.8577 588.792 57.527C591.613 55.0737 594.987 53.111 598.912 51.639C602.96 50.167 607.56 49.431 612.712 49.431C621.421 49.431 629.088 51.5777 635.712 55.871C642.459 60.1643 647.733 65.991 651.536 73.351C655.339 80.5883 657.24 88.8683 657.24 98.191C657.24 107.514 655.277 115.855 651.352 123.215C647.549 130.452 642.275 136.156 635.528 140.327C628.904 144.498 621.299 146.583 612.712 146.583C605.72 146.583 599.587 145.295 594.312 142.719C589.16 140.02 584.989 136.218 581.8 131.311V184.855H559.72ZM608.112 127.447C613.264 127.447 617.864 126.22 621.912 123.767C625.96 121.314 629.088 117.879 631.296 113.463C633.627 109.047 634.792 103.956 634.792 98.191C634.792 92.303 633.627 87.151 631.296 82.735C629.088 78.319 625.96 74.8843 621.912 72.431C617.864 69.9777 613.264 68.751 608.112 68.751C602.837 68.751 598.176 69.9777 594.128 72.431C590.203 74.8843 587.075 78.319 584.744 82.735C582.536 87.151 581.432 92.2417 581.432 98.007C581.432 103.895 582.536 109.047 584.744 113.463C587.075 117.756 590.203 121.191 594.128 123.767C598.176 126.22 602.837 127.447 608.112 127.447Z"
        fill="#101619"
    />
    <path
        d="M516.672 146.583C508.453 146.583 501.277 145.295 495.144 142.719C489.133 140.02 484.349 136.34 480.792 131.679C477.357 126.895 475.333 121.436 474.72 115.303H496.8C497.413 117.879 498.517 120.271 500.112 122.479C501.707 124.564 503.853 126.22 506.552 127.447C509.373 128.674 512.685 129.287 516.488 129.287C520.168 129.287 523.173 128.796 525.504 127.815C527.835 126.711 529.552 125.3 530.656 123.583C531.76 121.866 532.312 120.026 532.312 118.063C532.312 115.119 531.515 112.85 529.92 111.255C528.325 109.66 525.995 108.434 522.928 107.575C519.984 106.594 516.427 105.674 512.256 104.815C507.84 103.956 503.547 102.914 499.376 101.687C495.328 100.338 491.648 98.6817 488.336 96.719C485.147 94.7563 482.571 92.2417 480.608 89.175C478.768 86.1083 477.848 82.367 477.848 77.951C477.848 72.5537 479.259 67.7083 482.08 63.415C485.024 59.1217 489.195 55.7483 494.592 53.295C500.112 50.719 506.675 49.431 514.28 49.431C525.075 49.431 533.661 51.9457 540.04 56.975C546.541 61.8817 550.344 68.8123 551.448 77.767H530.472C529.859 74.3323 528.141 71.695 525.32 69.855C522.499 67.8923 518.757 66.911 514.096 66.911C509.312 66.911 505.632 67.831 503.056 69.671C500.603 71.3883 499.376 73.719 499.376 76.663C499.376 78.503 500.112 80.2203 501.584 81.815C503.179 83.287 505.448 84.575 508.392 85.679C511.336 86.6603 514.955 87.6417 519.248 88.623C526.117 89.9723 532.189 91.567 537.464 93.407C542.739 95.247 546.909 97.9457 549.976 101.503C553.043 105.06 554.576 110.09 554.576 116.591C554.699 122.479 553.165 127.692 549.976 132.231C546.909 136.77 542.555 140.327 536.912 142.903C531.269 145.356 524.523 146.583 516.672 146.583Z"
        fill="#101619"
    />
    <path
        d="M418.576 146.583C410.971 146.583 404.653 145.295 399.624 142.719C394.595 140.143 390.853 136.708 388.4 132.415C385.947 128.122 384.72 123.46 384.72 118.431C384.72 112.543 386.192 107.452 389.136 103.159C392.203 98.8657 396.68 95.5537 402.568 93.223C408.456 90.7697 415.693 89.543 424.28 89.543H447.648C447.648 84.6363 446.973 80.5883 445.624 77.399C444.275 74.087 442.189 71.6337 439.368 70.039C436.547 68.4443 432.928 67.647 428.512 67.647C423.483 67.647 419.189 68.8123 415.632 71.143C412.075 73.351 409.867 76.7857 409.008 81.447H387.296C388.032 74.823 390.24 69.1803 393.92 64.519C397.6 59.735 402.445 56.055 408.456 53.479C414.589 50.7803 421.275 49.431 428.512 49.431C437.221 49.431 444.643 50.9643 450.776 54.031C456.909 56.975 461.571 61.2683 464.76 66.911C468.072 72.431 469.728 79.1163 469.728 86.967V144.375H450.96L448.752 129.471C447.525 131.924 445.931 134.194 443.968 136.279C442.128 138.364 439.981 140.204 437.528 141.799C435.075 143.271 432.253 144.436 429.064 145.295C425.997 146.154 422.501 146.583 418.576 146.583ZM423.544 129.103C427.101 129.103 430.229 128.49 432.928 127.263C435.749 125.914 438.141 124.074 440.104 121.743C442.189 119.29 443.784 116.591 444.888 113.647C445.992 110.703 446.728 107.575 447.096 104.263V103.895H426.672C422.379 103.895 418.821 104.447 416 105.551C413.179 106.532 411.155 108.004 409.928 109.967C408.701 111.93 408.088 114.199 408.088 116.775C408.088 119.351 408.701 121.559 409.928 123.399C411.155 125.239 412.933 126.65 415.264 127.631C417.595 128.612 420.355 129.103 423.544 129.103Z"
        fill="#101619"
    />
    <path
        d="M363.456 144.375C357.2 144.375 351.741 143.394 347.08 141.431C342.541 139.468 338.984 136.218 336.408 131.679C333.832 127.14 332.544 121.007 332.544 113.279V70.223H316.72V51.639H332.544L335.12 27.167H354.624V51.639H379.832V70.223H354.624V113.279C354.624 117.94 355.605 121.191 357.568 123.031C359.653 124.748 363.088 125.607 367.872 125.607H379.28V144.375H363.456Z"
        fill="#101619"
    />
    <path
        d="M260.576 146.583C252.971 146.583 246.653 145.295 241.624 142.719C236.595 140.143 232.853 136.708 230.4 132.415C227.947 128.122 226.72 123.46 226.72 118.431C226.72 112.543 228.192 107.452 231.136 103.159C234.203 98.8657 238.68 95.5537 244.568 93.223C250.456 90.7697 257.693 89.543 266.28 89.543H289.648C289.648 84.6363 288.973 80.5883 287.624 77.399C286.275 74.087 284.189 71.6337 281.368 70.039C278.547 68.4443 274.928 67.647 270.512 67.647C265.483 67.647 261.189 68.8123 257.632 71.143C254.075 73.351 251.867 76.7857 251.008 81.447H229.296C230.032 74.823 232.24 69.1803 235.92 64.519C239.6 59.735 244.445 56.055 250.456 53.479C256.589 50.7803 263.275 49.431 270.512 49.431C279.221 49.431 286.643 50.9643 292.776 54.031C298.909 56.975 303.571 61.2683 306.76 66.911C310.072 72.431 311.728 79.1163 311.728 86.967V144.375H292.96L290.752 129.471C289.525 131.924 287.931 134.194 285.968 136.279C284.128 138.364 281.981 140.204 279.528 141.799C277.075 143.271 274.253 144.436 271.064 145.295C267.997 146.154 264.501 146.583 260.576 146.583ZM265.544 129.103C269.101 129.103 272.229 128.49 274.928 127.263C277.749 125.914 280.141 124.074 282.104 121.743C284.189 119.29 285.784 116.591 286.888 113.647C287.992 110.703 288.728 107.575 289.096 104.263V103.895H268.672C264.379 103.895 260.821 104.447 258 105.551C255.179 106.532 253.155 108.004 251.928 109.967C250.701 111.93 250.088 114.199 250.088 116.775C250.088 119.351 250.701 121.559 251.928 123.399C253.155 125.239 254.933 126.65 257.264 127.631C259.595 128.612 262.355 129.103 265.544 129.103Z"
        fill="#101619"
    />
    <path
        d="M165.72 144.375V51.639H185.408L187.432 68.935C189.64 64.887 192.4 61.4523 195.712 58.631C199.024 55.687 202.888 53.4177 207.304 51.823C211.843 50.2283 216.811 49.431 222.208 49.431V72.799H214.48C210.8 72.799 207.304 73.2897 203.992 74.271C200.68 75.1297 197.797 76.6017 195.344 78.687C193.013 80.6497 191.173 83.4097 189.824 86.967C188.475 90.4017 187.8 94.7563 187.8 100.031V144.375H165.72Z"
        fill="#101619"
    />
    <path
        d="M144.456 144.375C138.2 144.375 132.741 143.394 128.08 141.431C123.541 139.468 119.984 136.218 117.408 131.679C114.832 127.14 113.544 121.007 113.544 113.279V70.223H97.72V51.639H113.544L116.12 27.167H135.624V51.639H160.832V70.223H135.624V113.279C135.624 117.94 136.605 121.191 138.568 123.031C140.653 124.748 144.088 125.607 148.872 125.607H160.28V144.375H144.456Z"
        fill="#101619"
    />
    <path
        d="M48.024 146.583C38.7013 146.583 30.4213 144.927 23.184 141.615C15.9467 138.303 10.304 133.58 6.256 127.447C2.208 121.314 0.122667 114.015 0 105.551H23.368C23.368 109.844 24.3493 113.708 26.312 117.143C28.3973 120.455 31.2187 123.092 34.776 125.055C38.456 127.018 42.872 127.999 48.024 127.999C52.44 127.999 56.2427 127.324 59.432 125.975C62.744 124.503 65.2587 122.479 66.976 119.903C68.816 117.204 69.736 114.076 69.736 110.519C69.736 106.471 68.7547 103.159 66.792 100.583C64.952 97.8843 62.376 95.615 59.064 93.775C55.752 91.935 51.9493 90.3403 47.656 88.991C43.3627 87.519 38.824 85.9857 34.04 84.391C23.8587 80.9563 16.192 76.6017 11.04 71.327C5.888 65.9297 3.312 58.7537 3.312 49.799C3.312 42.3163 5.09067 35.8763 8.648 30.479C12.2053 25.0817 17.1733 20.911 23.552 17.967C30.0533 14.9003 37.536 13.367 46 13.367C54.5867 13.367 62.0693 14.9003 68.448 17.967C74.9493 21.0337 80.04 25.327 83.72 30.847C87.5227 36.2443 89.4853 42.7457 89.608 50.351H66.056C65.9333 47.1617 65.0747 44.2177 63.48 41.519C61.8853 38.6977 59.5547 36.4283 56.488 34.711C53.544 32.871 49.9253 31.951 45.632 31.951C41.952 31.8283 38.64 32.4417 35.696 33.791C32.8747 35.0177 30.6053 36.8577 28.888 39.311C27.2933 41.6417 26.496 44.5857 26.496 48.143C26.496 51.5777 27.232 54.4603 28.704 56.791C30.2987 58.999 32.568 60.9003 35.512 62.495C38.456 63.967 41.8907 65.3777 45.816 66.727C49.7413 68.0763 54.0347 69.5483 58.696 71.143C65.0747 73.2283 70.84 75.8043 75.992 78.871C81.2667 81.815 85.4373 85.679 88.504 90.463C91.5707 95.247 93.104 101.442 93.104 109.047C93.104 115.671 91.3867 121.866 87.952 127.631C84.5173 133.274 79.488 137.874 72.864 141.431C66.24 144.866 57.96 146.583 48.024 146.583Z"
        fill="#101619"
    />
    <path
        d="M506.094 234.962V173.084H548.728V180.332H515.74V200.134H545.834V207.205H515.74V227.714H548.728V234.962H506.094Z"
        fill="#B2881F"
    />
    <path
        d="M469.593 236.023C464.642 236.023 460.301 235.227 456.572 233.636C452.842 231.986 449.948 229.688 447.89 226.741C445.833 223.795 444.804 220.347 444.804 216.399H454.932C454.996 218.638 455.575 220.701 456.668 222.587C457.826 224.413 459.465 225.887 461.587 227.006C463.774 228.067 466.442 228.598 469.593 228.598C472.294 228.598 474.609 228.185 476.538 227.36C478.532 226.535 480.043 225.415 481.072 224.001C482.1 222.528 482.615 220.848 482.615 218.962C482.615 216.782 482.068 214.984 480.975 213.57C479.882 212.156 478.403 211.006 476.538 210.122C474.738 209.18 472.616 208.355 470.172 207.647C467.793 206.94 465.285 206.174 462.648 205.349C457.311 203.758 453.324 201.695 450.688 199.161C448.116 196.627 446.829 193.327 446.829 189.261C446.829 185.784 447.73 182.778 449.53 180.244C451.331 177.651 453.839 175.647 457.054 174.233C460.333 172.76 464.192 172.023 468.629 172.023C473.001 172.023 476.827 172.76 480.107 174.233C483.387 175.706 485.959 177.739 487.824 180.332C489.688 182.925 490.621 185.96 490.621 189.437H480.396C480.396 187.846 479.946 186.285 479.046 184.752C478.146 183.22 476.795 181.982 474.995 181.04C473.194 180.038 470.976 179.537 468.339 179.537C466.153 179.478 464.192 179.802 462.455 180.509C460.719 181.216 459.369 182.248 458.404 183.603C457.44 184.959 456.957 186.579 456.957 188.465C456.957 190.351 457.375 191.883 458.211 193.062C459.112 194.181 460.398 195.154 462.07 195.979C463.742 196.804 465.671 197.57 467.857 198.277C470.108 198.925 472.583 199.662 475.284 200.487C478.628 201.489 481.586 202.727 484.158 204.2C486.795 205.614 488.852 207.471 490.331 209.769C491.875 212.008 492.646 214.896 492.646 218.432C492.646 221.496 491.778 224.355 490.042 227.006C488.306 229.658 485.734 231.839 482.326 233.548C478.917 235.198 474.673 236.023 469.593 236.023Z"
        fill="#B2881F"
    />
    <path
        d="M405.056 236.023C400.297 236.023 395.989 235.168 392.13 233.459C388.272 231.692 385.186 229.04 382.871 225.504C380.62 221.909 379.495 217.342 379.495 211.802V173.084H389.14V211.89C389.14 215.603 389.816 218.668 391.166 221.084C392.516 223.441 394.381 225.209 396.76 226.388C399.204 227.507 402.033 228.067 405.249 228.067C408.528 228.067 411.358 227.507 413.737 226.388C416.116 225.209 417.949 223.441 419.235 221.084C420.585 218.668 421.26 215.603 421.26 211.89V173.084H430.906V211.802C430.906 217.342 429.749 221.909 427.434 225.504C425.119 229.04 422 231.692 418.077 233.459C414.155 235.168 409.814 236.023 405.056 236.023Z"
        fill="#B2881F"
    />
    <path
        d="M333.011 236.023C326.516 236.023 320.793 234.697 315.841 232.045C310.954 229.334 307.096 225.592 304.266 220.819C301.501 215.986 300.119 210.388 300.119 204.023C300.119 197.717 301.501 192.178 304.266 187.404C307.096 182.572 310.954 178.8 315.841 176.089C320.793 173.378 326.516 172.023 333.011 172.023C339.634 172.023 345.421 173.378 350.373 176.089C355.324 178.8 359.15 182.572 361.851 187.404C364.616 192.178 365.999 197.717 365.999 204.023C365.999 210.388 364.616 215.986 361.851 220.819C359.15 225.592 355.324 229.334 350.373 232.045C345.421 234.697 339.634 236.023 333.011 236.023ZM333.107 228.156C337.737 228.156 341.788 227.183 345.261 225.238C348.733 223.294 351.402 220.524 353.267 216.929C355.196 213.334 356.16 209.032 356.16 204.023C356.16 199.014 355.196 194.712 353.267 191.117C351.402 187.522 348.733 184.782 345.261 182.896C341.788 180.951 337.737 179.979 333.107 179.979C328.477 179.979 324.426 180.951 320.953 182.896C317.481 184.782 314.78 187.522 312.851 191.117C310.922 194.712 309.957 199.014 309.957 204.023C309.957 209.032 310.922 213.334 312.851 216.929C314.78 220.524 317.481 223.294 320.953 225.238C324.426 227.183 328.477 228.156 333.107 228.156Z"
        fill="#B2881F"
    />
    <path
        d="M276.728 234.962V173.084H286.374V234.962H276.728ZM233.805 234.962V173.084H243.451V234.962H233.805ZM241.811 207.029V199.78H278.85V207.029H241.811Z"
        fill="#B2881F"
    />
    <path d="M179.548 234.962V173.084H189.194V227.979H220.06V234.962H179.548Z" fill="#B2881F" />
    <path d="M125.291 234.962V173.084H134.937V227.979H165.803V234.962H125.291Z" fill="#B2881F" />
    <path
        d="M85.5427 236.023C80.7842 236.023 76.4758 235.168 72.6175 233.459C68.7592 231.692 65.6726 229.04 63.3576 225.504C61.107 221.909 59.9817 217.342 59.9817 211.802V173.084H69.6273V211.89C69.6273 215.603 70.3025 218.668 71.6529 221.084C73.0033 223.441 74.8681 225.209 77.2474 226.388C79.691 227.507 82.5204 228.067 85.7356 228.067C89.0151 228.067 91.8445 227.507 94.2238 226.388C96.6031 225.209 98.4358 223.441 99.7218 221.084C101.072 218.668 101.747 215.603 101.747 211.89V173.084H111.393V211.802C111.393 217.342 110.236 221.909 107.921 225.504C105.606 229.04 102.487 231.692 98.5644 233.459C94.6418 235.168 90.3012 236.023 85.5427 236.023Z"
        fill="#B2881F"
    />
    <path
        d="M4.728 234.962V173.084H46.6867V180.332H14.3737V200.399H41.3816V207.471H14.3737V234.962H4.728Z"
        fill="#B2881F"
    />
    <path
        d="M984.615 25.375V7.735H987.765L987.975 10.745C988.535 9.695 989.328 8.86667 990.355 8.26C991.382 7.63 992.56 7.315 993.89 7.315C995.29 7.315 996.492 7.595 997.495 8.155C998.498 8.715 999.28 9.56667 999.84 10.71C1000.4 11.83 1000.68 13.2417 1000.68 14.945V25.375H997.18V15.295C997.18 13.6617 996.818 12.425 996.095 11.585C995.372 10.745 994.322 10.325 992.945 10.325C992.035 10.325 991.218 10.5467 990.495 10.99C989.772 11.41 989.188 12.04 988.745 12.88C988.325 13.72 988.115 14.7467 988.115 15.96V25.375H984.615Z"
        fill="#B2881F"
    />
    <path
        d="M973.113 25.795C971.456 25.795 969.963 25.41 968.633 24.64C967.326 23.87 966.288 22.7967 965.518 21.42C964.771 20.02 964.398 18.41 964.398 16.59C964.398 14.7233 964.783 13.1017 965.553 11.725C966.323 10.325 967.373 9.24 968.703 8.47C970.033 7.7 971.526 7.315 973.183 7.315C974.863 7.315 976.356 7.7 977.663 8.47C978.969 9.24 979.996 10.3133 980.743 11.69C981.513 13.0667 981.898 14.6883 981.898 16.555C981.898 18.4217 981.513 20.0433 980.743 21.42C979.996 22.7967 978.958 23.87 977.628 24.64C976.298 25.41 974.793 25.795 973.113 25.795ZM973.113 22.785C974.069 22.785 974.933 22.5517 975.703 22.085C976.496 21.6183 977.126 20.93 977.593 20.02C978.083 19.0867 978.328 17.9317 978.328 16.555C978.328 15.1783 978.094 14.035 977.628 13.125C977.161 12.1917 976.531 11.4917 975.738 11.025C974.968 10.5583 974.116 10.325 973.183 10.325C972.249 10.325 971.386 10.5583 970.593 11.025C969.799 11.4917 969.158 12.1917 968.668 13.125C968.201 14.035 967.968 15.1783 967.968 16.555C967.968 17.9317 968.201 19.0867 968.668 20.02C969.158 20.93 969.788 21.6183 970.558 22.085C971.351 22.5517 972.203 22.785 973.113 22.785Z"
        fill="#B2881F"
    />
    <path
        d="M957.958 25.375V7.735H961.458V25.375H957.958ZM959.743 4.41C959.066 4.41 958.506 4.2 958.063 3.78C957.643 3.36 957.433 2.82333 957.433 2.17C957.433 1.54 957.643 1.02667 958.063 0.63C958.506 0.21 959.066 0 959.743 0C960.396 0 960.944 0.21 961.388 0.63C961.831 1.02667 962.053 1.54 962.053 2.17C962.053 2.82333 961.831 3.36 961.388 3.78C960.944 4.2 960.396 4.41 959.743 4.41Z"
        fill="#B2881F"
    />
    <path
        d="M952.208 25.375C951.088 25.375 950.12 25.2 949.303 24.85C948.486 24.5 947.856 23.9167 947.413 23.1C946.97 22.2833 946.748 21.175 946.748 19.775V10.71H943.703V7.73501H946.748L947.168 3.32501H950.248V7.73501H955.253V10.71H950.248V19.81C950.248 20.8133 950.458 21.5017 950.878 21.875C951.298 22.225 952.021 22.4 953.048 22.4H955.078V25.375H952.208Z"
        fill="#B2881F"
    />
    <path
        d="M937.823 25.375V7.735H941.323V25.375H937.823ZM939.608 4.41C938.931 4.41 938.371 4.2 937.928 3.78C937.508 3.36 937.298 2.82333 937.298 2.17C937.298 1.54 937.508 1.02667 937.928 0.63C938.371 0.21 938.931 0 939.608 0C940.261 0 940.81 0.21 941.253 0.63C941.696 1.02667 941.918 1.54 941.918 2.17C941.918 2.82333 941.696 3.36 941.253 3.78C940.81 4.2 940.261 4.41 939.608 4.41Z"
        fill="#B2881F"
    />
    <path
        d="M924.567 25.795C922.887 25.795 921.406 25.3983 920.122 24.605C918.839 23.7883 917.836 22.6917 917.112 21.315C916.412 19.915 916.062 18.3283 916.062 16.555C916.062 14.7583 916.412 13.1717 917.112 11.795C917.836 10.4183 918.839 9.33332 920.122 8.53999C921.429 7.72332 922.922 7.31499 924.602 7.31499C925.979 7.31499 927.192 7.59499 928.242 8.15499C929.292 8.69165 930.109 9.46165 930.692 10.465V0.174988H934.192V25.375H931.042L930.692 22.645C930.342 23.1817 929.887 23.695 929.327 24.185C928.767 24.6517 928.091 25.0367 927.297 25.34C926.504 25.6433 925.594 25.795 924.567 25.795ZM925.127 22.75C926.224 22.75 927.192 22.4933 928.032 21.98C928.872 21.4667 929.514 20.7433 929.957 19.81C930.424 18.8767 930.657 17.7917 930.657 16.555C930.657 15.3183 930.424 14.245 929.957 13.335C929.514 12.4017 928.872 11.6783 928.032 11.165C927.192 10.6283 926.224 10.36 925.127 10.36C924.077 10.36 923.132 10.6283 922.292 11.165C921.452 11.6783 920.799 12.4017 920.332 13.335C919.866 14.245 919.632 15.3183 919.632 16.555C919.632 17.7917 919.866 18.8767 920.332 19.81C920.799 20.7433 921.452 21.4667 922.292 21.98C923.132 22.4933 924.077 22.75 925.127 22.75Z"
        fill="#B2881F"
    />
    <path
        d="M905.839 25.795C904.159 25.795 902.665 25.41 901.359 24.64C900.052 23.87 899.025 22.7967 898.279 21.42C897.555 20.0433 897.194 18.445 897.194 16.625C897.194 14.7583 897.555 13.1367 898.279 11.76C899.025 10.36 900.052 9.275 901.359 8.505C902.665 7.71167 904.182 7.315 905.909 7.315C907.635 7.315 909.117 7.7 910.354 8.47C911.59 9.24 912.547 10.2667 913.224 11.55C913.9 12.81 914.239 14.21 914.239 15.75C914.239 15.9833 914.227 16.24 914.204 16.52C914.204 16.7767 914.192 17.0683 914.169 17.395H899.749V14.91H910.739C910.669 13.44 910.179 12.2967 909.269 11.48C908.359 10.64 907.227 10.22 905.874 10.22C904.917 10.22 904.042 10.4417 903.249 10.885C902.455 11.305 901.814 11.935 901.324 12.775C900.857 13.5917 900.624 14.63 900.624 15.89V16.87C900.624 18.1767 900.857 19.285 901.324 20.195C901.814 21.0817 902.455 21.7583 903.249 22.225C904.042 22.6683 904.905 22.89 905.839 22.89C906.959 22.89 907.88 22.645 908.604 22.155C909.327 21.665 909.864 21 910.214 20.16H913.714C913.41 21.2333 912.897 22.2017 912.174 23.065C911.45 23.905 910.552 24.57 909.479 25.06C908.429 25.55 907.215 25.795 905.839 25.795Z"
        fill="#B2881F"
    />
    <path
        d="M871.162 25.375V7.735H874.312L874.522 10.745C875.082 9.695 875.875 8.86667 876.902 8.26C877.928 7.63 879.107 7.315 880.437 7.315C881.837 7.315 883.038 7.595 884.042 8.155C885.045 8.715 885.827 9.56667 886.387 10.71C886.947 11.83 887.227 13.2417 887.227 14.945V25.375H883.727V15.295C883.727 13.6617 883.365 12.425 882.642 11.585C881.918 10.745 880.868 10.325 879.492 10.325C878.582 10.325 877.765 10.5467 877.042 10.99C876.318 11.41 875.735 12.04 875.292 12.88C874.872 13.72 874.662 14.7467 874.662 15.96V25.375H871.162Z"
        fill="#B2881F"
    />
    <path
        d="M860.273 25.795C858.593 25.795 857.1 25.41 855.793 24.64C854.486 23.87 853.46 22.7967 852.713 21.42C851.99 20.0433 851.628 18.445 851.628 16.625C851.628 14.7583 851.99 13.1367 852.713 11.76C853.46 10.36 854.486 9.275 855.793 8.505C857.1 7.71167 858.616 7.315 860.343 7.315C862.07 7.315 863.551 7.7 864.788 8.47C866.025 9.24 866.981 10.2667 867.658 11.55C868.335 12.81 868.673 14.21 868.673 15.75C868.673 15.9833 868.661 16.24 868.638 16.52C868.638 16.7767 868.626 17.0683 868.603 17.395H854.183V14.91H865.173C865.103 13.44 864.613 12.2967 863.703 11.48C862.793 10.64 861.661 10.22 860.308 10.22C859.351 10.22 858.476 10.4417 857.683 10.885C856.89 11.305 856.248 11.935 855.758 12.775C855.291 13.5917 855.058 14.63 855.058 15.89V16.87C855.058 18.1767 855.291 19.285 855.758 20.195C856.248 21.0817 856.89 21.7583 857.683 22.225C858.476 22.6683 859.34 22.89 860.273 22.89C861.393 22.89 862.315 22.645 863.038 22.155C863.761 21.665 864.298 21 864.648 20.16H868.148C867.845 21.2333 867.331 22.2017 866.608 23.065C865.885 23.905 864.986 24.57 863.913 25.06C862.863 25.55 861.65 25.795 860.273 25.795Z"
        fill="#B2881F"
    />
    <path
        d="M839.282 25.795C837.602 25.795 836.12 25.3983 834.837 24.605C833.554 23.7883 832.55 22.6917 831.827 21.315C831.127 19.915 830.777 18.3283 830.777 16.555C830.777 14.7583 831.127 13.1717 831.827 11.795C832.55 10.4183 833.554 9.33332 834.837 8.53999C836.144 7.72332 837.637 7.31499 839.317 7.31499C840.694 7.31499 841.907 7.59499 842.957 8.15499C844.007 8.69165 844.824 9.46165 845.407 10.465V0.174988H848.907V25.375H845.757L845.407 22.645C845.057 23.1817 844.602 23.695 844.042 24.185C843.482 24.6517 842.805 25.0367 842.012 25.34C841.219 25.6433 840.309 25.795 839.282 25.795ZM839.842 22.75C840.939 22.75 841.907 22.4933 842.747 21.98C843.587 21.4667 844.229 20.7433 844.672 19.81C845.139 18.8767 845.372 17.7917 845.372 16.555C845.372 15.3183 845.139 14.245 844.672 13.335C844.229 12.4017 843.587 11.6783 842.747 11.165C841.907 10.6283 840.939 10.36 839.842 10.36C838.792 10.36 837.847 10.6283 837.007 11.165C836.167 11.6783 835.514 12.4017 835.047 13.335C834.58 14.245 834.347 15.3183 834.347 16.555C834.347 17.7917 834.58 18.8767 835.047 19.81C835.514 20.7433 836.167 21.4667 837.007 21.98C837.847 22.4933 838.792 22.75 839.842 22.75Z"
        fill="#B2881F"
    />
    <path
        d="M824.337 25.375V7.735H827.837V25.375H824.337ZM826.122 4.41C825.445 4.41 824.885 4.2 824.442 3.78C824.022 3.36 823.812 2.82333 823.812 2.17C823.812 1.54 824.022 1.02667 824.442 0.63C824.885 0.21 825.445 0 826.122 0C826.775 0 827.324 0.21 827.767 0.63C828.21 1.02667 828.432 1.54 828.432 2.17C828.432 2.82333 828.21 3.36 827.767 3.78C827.324 4.2 826.775 4.41 826.122 4.41Z"
        fill="#B2881F"
    />
    <path
        d="M811.855 25.795C810.408 25.795 809.206 25.55 808.25 25.06C807.293 24.57 806.581 23.9167 806.115 23.1C805.648 22.26 805.415 21.3617 805.415 20.405C805.415 19.2383 805.718 18.2467 806.325 17.43C806.931 16.59 807.795 15.9483 808.915 15.505C810.035 15.0617 811.376 14.84 812.94 14.84H817.525C817.525 13.8133 817.373 12.9617 817.07 12.285C816.766 11.6083 816.311 11.1067 815.705 10.78C815.121 10.43 814.375 10.255 813.465 10.255C812.415 10.255 811.516 10.5117 810.77 11.025C810.023 11.515 809.556 12.25 809.37 13.23H805.87C806.01 11.9933 806.43 10.9433 807.13 10.08C807.853 9.19334 808.775 8.51667 809.895 8.05C811.015 7.56 812.205 7.315 813.465 7.315C815.121 7.315 816.51 7.60667 817.63 8.19C818.75 8.77334 819.59 9.60167 820.15 10.675C820.733 11.725 821.025 12.985 821.025 14.455V25.375H817.98L817.7 22.4C817.443 22.8667 817.14 23.31 816.79 23.73C816.44 24.15 816.02 24.5117 815.53 24.815C815.063 25.1183 814.515 25.3517 813.885 25.515C813.278 25.7017 812.601 25.795 811.855 25.795ZM812.52 22.96C813.266 22.96 813.943 22.8083 814.55 22.505C815.156 22.2017 815.67 21.7933 816.09 21.28C816.533 20.7433 816.86 20.1483 817.07 19.495C817.303 18.8183 817.431 18.13 817.455 17.43V17.325H813.29C812.286 17.325 811.47 17.4533 810.84 17.71C810.233 17.9433 809.79 18.27 809.51 18.69C809.23 19.11 809.09 19.6 809.09 20.16C809.09 20.7433 809.218 21.245 809.475 21.665C809.755 22.0617 810.151 22.3767 810.665 22.61C811.178 22.8433 811.796 22.96 812.52 22.96Z"
        fill="#B2881F"
    />
    <path
        d="M775.657 25.375V7.735H778.807L779.052 10.22C779.612 9.31 780.358 8.59834 781.292 8.085C782.225 7.57167 783.275 7.315 784.442 7.315C785.328 7.315 786.133 7.44334 786.857 7.7C787.58 7.93334 788.222 8.295 788.782 8.785C789.342 9.275 789.797 9.88167 790.147 10.605C790.777 9.57834 791.617 8.77334 792.667 8.19C793.74 7.60667 794.872 7.315 796.062 7.315C797.485 7.315 798.71 7.60667 799.737 8.19C800.763 8.75 801.545 9.60167 802.082 10.745C802.618 11.865 802.887 13.265 802.887 14.945V25.375H799.422V15.295C799.422 13.6617 799.083 12.425 798.407 11.585C797.753 10.745 796.785 10.325 795.502 10.325C794.638 10.325 793.868 10.5467 793.192 10.99C792.515 11.4333 791.978 12.075 791.582 12.915C791.208 13.755 791.022 14.7817 791.022 15.995V25.375H787.522V15.295C787.522 13.6617 787.183 12.425 786.507 11.585C785.853 10.745 784.885 10.325 783.602 10.325C782.785 10.325 782.038 10.5467 781.362 10.99C780.685 11.4333 780.148 12.075 779.752 12.915C779.355 13.755 779.157 14.7817 779.157 15.995V25.375H775.657Z"
        fill="#B2881F"
    />
    <path d="M760.396 29.68L762.391 21.595H765.926L762.741 29.68H760.396Z" fill="#B2881F" />
    <path
        d="M750.937 25.795C749.211 25.795 747.729 25.4917 746.492 24.885C745.256 24.255 744.276 23.415 743.552 22.365C742.829 21.2917 742.386 20.09 742.222 18.76H745.652C745.886 19.95 746.469 20.93 747.402 21.7C748.336 22.4467 749.514 22.82 750.937 22.82C752.011 22.82 752.932 22.5633 753.702 22.05C754.472 21.5367 755.067 20.8483 755.487 19.985C755.907 19.1217 756.117 18.165 756.117 17.115C756.117 15.995 755.896 15.0267 755.452 14.21C755.032 13.37 754.437 12.7167 753.667 12.25C752.921 11.7833 752.046 11.55 751.042 11.55C749.829 11.55 748.779 11.83 747.892 12.39C747.029 12.9267 746.399 13.615 746.002 14.455H742.607L744.637 0.875H757.832V3.92H747.332L746.037 10.78C746.597 10.15 747.344 9.63667 748.277 9.24C749.234 8.84333 750.319 8.645 751.532 8.645C752.769 8.645 753.877 8.86667 754.857 9.31C755.837 9.73 756.666 10.325 757.342 11.095C758.042 11.865 758.567 12.7633 758.917 13.79C759.291 14.8167 759.477 15.9017 759.477 17.045C759.477 18.2817 759.279 19.425 758.882 20.475C758.486 21.525 757.914 22.4583 757.167 23.275C756.444 24.0683 755.546 24.6867 754.472 25.13C753.422 25.5733 752.244 25.795 750.937 25.795Z"
        fill="#B2881F"
    />
    <path
        d="M723.212 25.375V22.855C724.846 21.595 726.397 20.3233 727.867 19.04C729.337 17.7567 730.644 16.485 731.787 15.225C732.954 13.9417 733.864 12.6933 734.517 11.48C735.171 10.2433 735.497 9.06499 735.497 7.94499C735.497 7.15165 735.357 6.41665 735.077 5.73999C734.797 5.06332 734.354 4.51499 733.747 4.09499C733.141 3.65165 732.312 3.42999 731.262 3.42999C730.259 3.42999 729.419 3.65165 728.742 4.09499C728.089 4.53832 727.587 5.13332 727.237 5.87999C726.911 6.60332 726.747 7.40832 726.747 8.29499H723.352C723.376 6.61499 723.737 5.19165 724.437 4.02499C725.137 2.85832 726.082 1.97165 727.272 1.36499C728.486 0.758319 729.839 0.454987 731.332 0.454987C732.896 0.454987 734.249 0.746653 735.392 1.32999C736.536 1.88999 737.422 2.71832 738.052 3.81499C738.682 4.88832 738.997 6.20665 738.997 7.76999C738.997 8.88999 738.776 10.01 738.332 11.13C737.889 12.2267 737.282 13.3 736.512 14.35C735.766 15.4 734.926 16.415 733.992 17.395C733.059 18.3517 732.091 19.2617 731.087 20.125C730.107 20.9883 729.162 21.77 728.252 22.47H739.767V25.375H723.212Z"
        fill="#B2881F"
    />
    <path d="M715.77 9.205L719.06 0.875H721.51L719.585 9.205H715.77Z" fill="#B2881F" />
</svg>
