<svg xmlns="http://www.w3.org/2000/svg" viewBox="0 0 542 542" fill="none">
    <path
        d="M247.48 529.644L246.391 541.818C245.995 541.783 245.599 541.748 245.204 541.711L246.344 529.539C246.723 529.574 247.101 529.611 247.48 529.644ZM296.615 541.711C296.22 541.748 295.824 541.783 295.428 541.818L294.34 529.644C294.719 529.611 295.097 529.574 295.476 529.539L296.615 541.711ZM223.701 526.408L222.597 532.419V532.42L221.493 538.431C221.102 538.359 220.709 538.286 220.318 538.212L222.578 526.2C222.952 526.271 223.327 526.34 223.701 526.408ZM321.501 538.212C321.11 538.286 320.717 538.359 320.326 538.431L319.223 532.42L318.12 526.408C318.494 526.34 318.868 526.271 319.242 526.2L321.501 538.212ZM200.333 520.986L197.02 532.751C196.635 532.644 196.251 532.535 195.867 532.425L199.234 520.675C199.6 520.779 199.966 520.884 200.333 520.986ZM345.952 532.425C345.568 532.535 345.184 532.644 344.799 532.751L341.487 520.986C341.854 520.884 342.221 520.779 342.586 520.675L345.952 532.425ZM177.573 513.417L173.18 524.822C172.807 524.679 172.435 524.534 172.063 524.39L176.507 513.004C176.863 513.142 177.219 513.28 177.573 513.417ZM369.755 524.39C369.384 524.534 369.012 524.679 368.639 524.822L364.248 513.417C364.603 513.28 364.959 513.142 365.313 513.004L369.755 524.39ZM155.613 503.764L150.178 514.715C149.821 514.537 149.464 514.357 149.107 514.178L154.589 503.254C154.929 503.424 155.27 503.594 155.613 503.764ZM392.712 514.178C392.355 514.357 391.998 514.537 391.641 514.715L386.208 503.764C386.55 503.594 386.891 503.424 387.231 503.254L392.712 514.178ZM134.635 492.116L128.212 502.517C127.874 502.307 127.534 502.097 127.195 501.885L133.663 491.512C133.987 491.714 134.311 491.916 134.635 492.116ZM414.624 501.885C414.285 502.097 413.945 502.307 413.607 502.517L407.185 492.116C407.509 491.916 407.833 491.714 408.157 491.512L414.624 501.885ZM114.818 478.58L107.465 488.344C107.146 488.104 106.828 487.863 106.51 487.621L113.906 477.889C114.209 478.12 114.514 478.35 114.818 478.58ZM435.308 487.621C434.992 487.863 434.672 488.104 434.353 488.344L427.003 478.58C427.307 478.35 427.61 478.12 427.915 477.889L435.308 487.621ZM96.3258 463.276L88.1075 472.325C87.8122 472.056 87.5182 471.787 87.2241 471.518L95.4806 462.506C95.7616 462.762 96.0436 463.02 96.3258 463.276ZM454.595 471.518C454.3 471.787 454.007 472.056 453.711 472.325L445.494 463.276C445.776 463.02 446.059 462.762 446.34 462.506L454.595 471.518ZM79.3151 446.34L70.3017 454.595C70.0322 454.3 69.7628 454.007 69.4947 453.711L78.5438 445.494C78.8001 445.776 79.0575 446.059 79.3151 446.34ZM472.325 453.711C472.056 454.007 471.787 454.3 471.518 454.595L462.506 446.34C462.762 446.059 463.02 445.776 463.276 445.494L472.325 453.711ZM63.9303 427.915L59.0619 431.611L59.0631 431.613L54.1971 435.308C53.9556 434.992 53.7149 434.672 53.4748 434.353L63.2402 427.003C63.4695 427.307 63.6997 427.61 63.9303 427.915ZM488.344 434.353C488.104 434.672 487.863 434.992 487.621 435.308L482.757 431.613L477.889 427.915C478.12 427.61 478.35 427.307 478.58 427.003L488.344 434.353ZM50.3075 408.157L39.9333 414.624C39.7221 414.285 39.5114 413.945 39.3017 413.607L49.7035 407.185C49.9039 407.509 50.1059 407.833 50.3075 408.157ZM502.517 413.607C502.307 413.945 502.097 414.285 501.885 414.624L491.512 408.157C491.714 407.833 491.916 407.509 492.116 407.185L502.517 413.607ZM38.5664 387.231L27.6406 392.712C27.4616 392.355 27.2819 391.998 27.1045 391.641L38.0567 386.208C38.226 386.55 38.3955 386.891 38.5664 387.231ZM514.715 391.641C514.537 391.998 514.357 392.355 514.178 392.712L503.254 387.231C503.424 386.891 503.594 386.55 503.764 386.208L514.715 391.641ZM28.8165 365.313L17.4298 369.755C17.2847 369.384 17.1399 369.012 16.9964 368.639L28.4034 364.248C28.5402 364.603 28.6781 364.959 28.8165 365.313ZM524.822 368.639C524.679 369.012 524.534 369.384 524.39 369.755L518.697 367.535L513.004 365.313C513.142 364.959 513.28 364.603 513.417 364.248L524.822 368.639ZM21.1462 342.586L9.39417 345.952C9.28428 345.568 9.17531 345.184 9.06706 344.799L20.8334 341.487C20.9365 341.854 21.0413 342.221 21.1462 342.586ZM532.751 344.799C532.644 345.184 532.535 345.568 532.425 345.952L520.675 342.586C520.779 342.221 520.884 341.854 520.986 341.487L532.751 344.799ZM15.6199 319.242L3.60653 321.501C3.53293 321.11 3.45998 320.717 3.38807 320.326L15.4122 318.12C15.4809 318.494 15.5496 318.868 15.6199 319.242ZM532.419 319.223L538.431 320.326C538.359 320.717 538.286 321.11 538.212 321.501L532.206 320.373L526.2 319.242C526.271 318.868 526.34 318.494 526.408 318.12L532.419 319.223ZM12.2808 295.476L0.108637 296.615C0.0715452 296.22 0.0353942 295.824 0 295.428L12.1758 294.34C12.2096 294.719 12.2454 295.097 12.2808 295.476ZM529.644 294.34L541.818 295.428C541.783 295.824 541.748 296.22 541.711 296.615L529.539 295.476C529.574 295.097 529.611 294.719 529.644 294.34ZM12.2808 246.344C12.2454 246.723 12.2096 247.101 12.1758 247.48L0 246.391C0.0353967 245.995 0.0715427 245.599 0.108637 245.204L12.2808 246.344ZM541.818 246.391L529.644 247.48C529.611 247.101 529.574 246.723 529.539 246.344L541.711 245.204C541.748 245.599 541.783 245.995 541.818 246.391ZM9.61384 221.448L15.6199 222.578C15.5496 222.952 15.4809 223.327 15.4122 223.701L9.40014 222.597L3.38807 221.493C3.45998 221.102 3.53293 220.709 3.60653 220.318L9.61384 221.448ZM538.212 220.318C538.286 220.709 538.359 221.102 538.431 221.493L532.42 222.597H532.419L526.408 223.701C526.34 223.327 526.271 222.952 526.2 222.578L538.212 220.318ZM9.39417 195.867L21.1462 199.234C21.0413 199.6 20.9365 199.966 20.8334 200.333L9.06706 197.02C9.12086 196.828 9.17403 196.638 9.22823 196.447L9.39417 195.867ZM532.425 195.867C532.535 196.251 532.644 196.635 532.751 197.02L520.986 200.333C520.884 199.966 520.779 199.6 520.675 199.234L532.425 195.867ZM23.1231 174.285L28.8165 176.507C28.678 176.863 28.5403 177.219 28.4034 177.573L16.9964 173.18C17.1399 172.807 17.2847 172.435 17.4298 172.063L23.1231 174.285ZM524.39 172.063C524.534 172.435 524.679 172.807 524.822 173.18L513.417 177.573C513.28 177.219 513.142 176.863 513.004 176.507L524.39 172.063ZM38.5664 154.589C38.3955 154.929 38.226 155.27 38.0567 155.613L27.1057 150.179L27.1045 150.178C27.2819 149.821 27.4616 149.464 27.6406 149.107L38.5664 154.589ZM514.178 149.107C514.357 149.464 514.537 149.821 514.715 150.178L503.764 155.613C503.594 155.27 503.424 154.929 503.254 154.589L514.178 149.107ZM39.9333 127.195L50.3075 133.663C50.1059 133.987 49.905 134.311 49.7047 134.635L39.3017 128.212L39.9333 127.195ZM501.885 127.195C502.097 127.534 502.307 127.874 502.517 128.212L492.116 134.635C491.916 134.311 491.714 133.987 491.512 133.663L501.885 127.195ZM63.9303 113.906C63.6997 114.209 63.4695 114.514 63.2402 114.818L53.4748 107.465C53.7149 107.146 53.9556 106.828 54.1971 106.51L63.9303 113.906ZM487.621 106.51C487.863 106.828 488.104 107.146 488.344 107.465L478.58 114.818C478.35 114.514 478.12 114.209 477.889 113.906L487.621 106.51ZM79.3151 95.4806C79.0575 95.7616 78.8001 96.0436 78.5438 96.3258L69.4947 88.1075C69.7628 87.8122 70.0322 87.5182 70.3017 87.2241L79.3151 95.4806ZM471.518 87.2241C471.787 87.5182 472.056 87.8122 472.325 88.1075L463.276 96.3258C463.02 96.0436 462.762 95.7616 462.506 95.4806L471.518 87.2241ZM96.3258 78.5438C96.0436 78.8001 95.7616 79.0575 95.4806 79.3151L87.2241 70.3017C87.5182 70.0322 87.8122 69.7628 88.1075 69.4947L96.3258 78.5438ZM453.711 69.4947C454.007 69.7628 454.3 70.0322 454.595 70.3017L446.34 79.3151C446.059 79.0575 445.776 78.8001 445.494 78.5438L453.711 69.4947ZM114.818 63.2402C114.514 63.4695 114.209 63.6997 113.906 63.9303L106.51 54.1971C106.828 53.9556 107.146 53.7149 107.465 53.4748L114.818 63.2402ZM434.353 53.4748C434.672 53.7149 434.992 53.9556 435.308 54.1971L427.915 63.9303C427.61 63.6997 427.307 63.4695 427.003 63.2402L434.353 53.4748ZM134.635 49.7035C134.311 49.9038 133.987 50.1059 133.663 50.3075L127.195 39.9333C127.534 39.7221 127.874 39.5114 128.212 39.3017L134.635 49.7035ZM414.624 39.9333L408.157 50.3075C407.833 50.1059 407.509 49.905 407.185 49.7047L413.607 39.3017C413.945 39.5114 414.285 39.7221 414.624 39.9333ZM150.179 27.1057L155.613 38.0567C155.27 38.226 154.929 38.3955 154.589 38.5664L149.107 27.6406C149.464 27.4616 149.821 27.2819 150.178 27.1045L150.179 27.1057ZM391.641 27.1045C391.998 27.2819 392.355 27.4616 392.712 27.6406L387.231 38.5664C386.891 38.3955 386.55 38.226 386.208 38.0567L391.641 27.1045ZM177.573 28.4034C177.219 28.5403 176.863 28.678 176.507 28.8165L172.063 17.4298C172.435 17.2847 172.807 17.1399 173.18 16.9964L177.573 28.4034ZM368.639 16.9964C369.012 17.1399 369.384 17.2847 369.755 17.4298L367.535 23.1231L367.534 23.122L365.313 28.8165C364.959 28.6781 364.603 28.5402 364.248 28.4034L368.639 16.9964ZM200.333 20.8334C199.966 20.9365 199.6 21.0413 199.234 21.1462L195.867 9.39417C196.251 9.28428 196.635 9.17531 197.02 9.06706L200.333 20.8334ZM344.799 9.06706C345.184 9.17531 345.568 9.28428 345.952 9.39417L342.586 21.1462C342.221 21.0413 341.854 20.9365 341.487 20.8334L344.799 9.06706ZM223.701 15.4122C223.327 15.4809 222.952 15.5496 222.578 15.6199L220.318 3.60653C220.709 3.53293 221.102 3.45998 221.493 3.38807L223.701 15.4122ZM320.326 3.38807C320.717 3.45998 321.11 3.53293 321.501 3.60653L320.373 9.61384L320.371 9.61264L319.242 15.6199C318.868 15.5496 318.494 15.4809 318.12 15.4122L320.326 3.38807ZM247.48 12.1758C247.101 12.2096 246.723 12.2454 246.344 12.2808L245.204 0.108637C245.599 0.0715427 245.995 0.0353967 246.391 0L247.48 12.1758ZM296.615 0.108637L295.476 12.2808C295.097 12.2454 294.719 12.2096 294.34 12.1758L295.428 0C295.824 0.0353942 296.22 0.0715452 296.615 0.108637Z"
    />
</svg>
