<svg viewBox="0 0 3600 1232" fill="none" xmlns="http://www.w3.org/2000/svg">
    <g>
        <path
            d="M-746.249 1012.89C-746.249 481.791 -316.443 218.41 213.75 218.41C743.944 218.41 1173.75 481.791 1173.75 1012.89C1282.5 1910.67 743.944 1319.04 213.75 1319.04C-316.443 1319.04 -746.249 1543.99 -746.249 1012.89Z"
            fill="#3D5761"
        />
        <path
            d="M2722.5 1048.41C2722.5 1507.75 2452.17 1980.71 1762.5 1880.11C849.375 1746.91 423.75 1507.75 423.75 1048.41C423.75 589.076 989.698 488.957 1762.5 216.713C2385 -2.58289 2722.5 589.076 2722.5 1048.41Z"
            fill="#C09D4F"
        />
        <path
            d="M4546.38 1002.82C4785.65 469.936 4061.43 -0.0320897 3437.89 -0.0320897C2814.35 -0.0320897 2080.56 303.12 2080.56 884.603C2080.56 1466.09 3085.38 1398.63 3724.31 1459.16C4289.87 1470.04 4395.82 1338.13 4546.38 1002.82Z"
            fill="#6A7372"
        />
        <path
            d="M3844.5 1841.18C3844.5 2372.28 3414.69 2802.82 2884.5 2802.82C2354.31 2802.82 1395.75 2530.05 1395.75 1998.95C1395.75 1467.85 2354.31 879.539 2884.5 879.539C3414.69 879.539 3844.5 1310.08 3844.5 1841.18Z"
            fill="#989A85"
        />
        <path
            d="M2087.13 1537.61C2187.39 2337.3 879.202 2645.75 349.009 2645.75C-181.185 2645.75 -610.992 2215.21 -610.992 1684.11C-610.992 1153.01 -652.242 294.234 307.758 741.247C1316.51 1233.34 1992.3 781.155 2087.13 1537.61Z"
            fill="#0C6291"
        />
    </g>
</svg>
