<svg viewBox="0 0 117 23" fill="none" xmlns="http://www.w3.org/2000/svg">
    <path
        d="M86.3467 2.4531C95.2986 0.198877 105.083 -1.00194 115.363 1.0654C115.905 1.17441 116.255 1.70178 116.147 2.24314C116.037 2.78437 115.51 3.13514 114.969 3.02634C105.084 1.0385 95.6213 2.18003 86.835 4.39255C77.9874 6.62055 70.0252 9.86782 62.8389 12.124C42.1886 18.6072 22.7681 24.6308 0.8682 21.7109C0.320905 21.6379 -0.063904 21.1351 0.00882467 20.5879C0.0818022 20.0405 0.584548 19.6557 1.13187 19.7285C22.5272 22.5812 41.535 16.7169 62.2393 10.2168C69.1869 8.03556 77.4561 4.69192 86.3467 2.4531Z"
    />
</svg>
